<!DOCTYPE svg PUBLIC "-//W3C//DTD SVG 20010904//EN" "http://www.w3.org/TR/2001/REC-SVG-20010904/DTD/svg10.dtd">
<svg version="1.0" xmlns="http://www.w3.org/2000/svg" width="500px" height="500px" viewBox="0 0 5000 5000" preserveAspectRatio="xMidYMid meet">
<g id="layer101" fill="#000000" stroke="none">
</g>
<g id="layer102" fill="#02e677" stroke="none">
<path d="M2256 4879 c-279 -18 -569 -100 -827 -234 -244 -128 -246 -128 -287 -117 -20 5 -89 24 -152 42 -173 48 -337 90 -410 105 -36 8 -91 23 -122 34 -32 12 -69 21 -82 21 -14 0 -36 4 -50 10 -22 8 -28 6 -42 -15 -14 -22 -14 -30 5 -102 11 -43 23 -89 27 -103 10 -42 50 -185 109 -393 77 -269 77 -272 -10 -417 -144 -243 -251 -510 -301 -750 -50 -242 -54 -633 -9 -875 24 -132 109 -433 152 -539 110 -271 277 -519 503 -747 197 -198 419 -358 664 -479 233 -115 402 -170 681 -221 149 -27 470 -37 624 -20 181 21 494 93 595 136 17 7 67 28 111 47 175 72 379 197 550 335 540 435 861 1063 904 1768 32 521 -93 1003 -369 1416 -263 393 -578 676 -965 864 -419 204 -772 267 -1299 234z"/>
</g>
<g id="layer103" fill="#f6fefa" stroke="none">
<path d="M3175 3834 c-11 -2 -46 -11 -78 -20 -31 -8 -82 -19 -112 -24 -30 -5 -69 -16 -87 -24 -18 -8 -55 -20 -83 -27 -27 -6 -59 -17 -70 -24 -11 -6 -38 -18 -60 -25 -22 -7 -60 -23 -85 -36 -25 -13 -52 -24 -62 -24 -9 0 -24 -7 -33 -16 -9 -9 -31 -22 -48 -28 -27 -10 -93 -44 -147 -77 -8 -5 -31 -18 -51 -28 -19 -11 -41 -27 -48 -35 -8 -9 -20 -16 -27 -16 -8 0 -22 -8 -32 -17 -10 -10 -45 -36 -78 -58 -95 -63 -167 -127 -364 -325 -219 -218 -323 -339 -411 -475 -14 -22 -34 -53 -45 -69 -54 -80 -154 -269 -154 -290 0 -8 -7 -19 -15 -26 -8 -7 -18 -28 -21 -49 -4 -20 -18 -65 -32 -101 -22 -59 -25 -79 -25 -220 -1 -150 1 -158 32 -250 18 -52 39 -102 47 -111 8 -8 14 -19 14 -24 0 -16 91 -145 134 -190 37 -39 64 -58 146 -102 36 -19 242 -18 279 2 38 19 74 63 100 122 13 26 33 71 46 98 13 28 35 75 49 105 14 30 26 61 26 68 0 7 9 30 20 50 51 96 74 167 78 250 3 83 3 84 -35 140 -21 31 -46 64 -55 74 -10 10 -18 21 -18 26 0 4 -20 29 -45 55 -95 99 -90 165 25 332 107 154 248 306 389 420 40 33 84 70 98 83 13 12 28 22 32 22 4 0 16 9 25 19 10 11 32 25 49 32 18 7 39 18 47 25 21 17 140 80 170 89 14 4 31 12 38 18 8 6 43 21 79 34 61 21 66 21 91 6 30 -18 158 -149 224 -229 64 -76 98 -97 162 -96 40 0 68 8 111 31 32 17 63 31 70 31 7 0 18 7 25 15 7 9 32 20 56 26 24 6 49 17 55 25 6 8 30 19 53 25 22 6 52 19 66 29 14 10 39 21 57 24 18 4 42 15 55 25 13 10 37 21 53 25 17 4 42 19 58 34 24 23 27 33 27 92 0 45 -8 89 -25 138 -14 39 -25 78 -25 86 0 24 -83 118 -161 182 -135 111 -286 172 -443 179 -50 2 -100 2 -111 -1z"/>
</g>


</svg>